#N canvas 0 44 749 722 10;
#X floatatom 266 532 5 0 0 0 - - -;
#X obj 266 454 tgl 15 0 empty empty empty 17 7 0 10 -262144 -1 -1 0
1;
#X obj 266 505 counter 1 6;
#X obj 310 548 sel 6;
#X obj 310 575 t b b;
#X msg 310 602 1;
#X obj 266 558 mod 2;
#X obj 204 548 osc~ 220;
#X obj 204 575 *~;
#X floatatom 185 411 5 0 0 0 - - -;
#X obj 185 332 tgl 15 0 empty empty empty 17 7 0 10 -262144 -1 -1 0
1;
#X obj 185 384 counter 1 0 60;
#X obj 266 427 sel 0;
#X obj 185 305 inlet;
#X obj 185 437 outlet;
#X obj 204 602 dac~;
#X obj 266 478 metro 1000;
#X obj 185 357 metro 1000;
#X obj 266 358 bng 15 250 50 0 empty empty empty 17 7 0 10 -262144
-1 -1;
#X obj 293 358 f \$1;
#X obj 266 304 loadbang;
#X obj 266 331 t b b;
#X connect 0 0 3 0;
#X connect 0 0 6 0;
#X connect 1 0 16 0;
#X connect 2 0 0 0;
#X connect 3 0 4 0;
#X connect 4 0 5 0;
#X connect 4 1 1 0;
#X connect 5 0 0 0;
#X connect 6 0 8 1;
#X connect 7 0 8 0;
#X connect 8 0 15 0;
#X connect 8 0 15 1;
#X connect 9 0 12 0;
#X connect 9 0 14 0;
#X connect 10 0 17 0;
#X connect 11 0 9 0;
#X connect 12 0 10 0;
#X connect 12 0 1 0;
#X connect 13 0 10 0;
#X connect 16 0 2 0;
#X connect 17 0 11 0;
#X connect 18 0 11 4;
#X connect 19 0 11 4;
#X connect 20 0 21 0;
#X connect 21 0 18 0;
#X connect 21 1 19 0;
